<svg xmlns="http://www.w3.org/2000/svg" width="45" height="41" viewBox="0 0 45 41"><g><g><g><path fill="#ef0b1a" d="M44.465 22.081c0 .186.186.558.186.745v14.883c0 1.675-1.116 2.791-2.79 2.791H38.14c-1.675 0-2.791-1.116-2.791-2.79v-.93H9.302v.93c0 1.674-1.116 2.79-2.79 2.79H2.79C1.116 40.5 0 39.384 0 37.71V22.825c0-.186.186-.559.186-.559l3.721-3.72c.558-.93.93-1.675 1.488-2.605.558-.93.93-1.86 1.489-2.605l.372-.558C8 11.663 8.744 10.733 9.488 9.43c.186-.372.372-.558.745-.558h1.674c.558-.186 1.302-.186 1.86-.186.559 0 .745.558.745 1.116s-.373.93-.93.93H10.604c-.559 1.117-1.303 2.047-1.86 2.977l-.373.744c-.372.559-.93 1.489-1.302 2.42-.186.371-.558.93-.744 1.301h32c-.559-.93-.93-1.86-1.489-2.418l-.744-1.303c-.744-.93-1.488-2.418-2.419-3.72-.558-.187-1.302-.187-1.86-.187-.744 0-1.675 0-2.419-.186-.372-.186-.744-.558-.744-1.116.186-.372.558-.744 1.116-.744.745.186 1.675.186 2.419.186s1.675.186 2.419.186c.186 0 .372.186.558.186.93 1.489 1.86 2.977 2.604 4.093l.745 1.302c.558 1.117 1.302 2.42 2.232 3.907zm-1.674 1.117l-3.163-3.163H5.023L1.86 23.198v.558h7.442c.558 0 .93.372.93.93s-.372.93-.93.93H1.86V37.71c0 .558.373.93.93.93h3.722c.558 0 .93-.372.93-.93v-1.86c0-.558.372-.93.93-.93H36.28c.558 0 .93.372.93.93v1.86c0 .558.372.93.93.93h3.721c.559 0 .93-.372.93-.93V25.616H35.35c-.558 0-.93-.372-.93-.93s.372-.93.93-.93h7.442z"/></g><g><path fill="#ef0b1a" d="M33.3 25.807c.186.186.372.558.186.93-1.675 5.21-2.605 6.325-3.721 6.325H14.88c-1.116 0-2.047-1.116-3.721-6.325 0-.186 0-.558.186-.93l1.86-1.86c.187 0 .559-.187.745-.187h16.744c.372 0 .558 0 .744.186zm-3.721 5.395c.186-.186.93-.93 1.86-4.465l-1.116-1.117h-16l-1.116 1.117c1.116 3.535 1.674 4.279 1.86 4.465z"/></g><g><path fill="#ef0b1a" d="M20.654 16.686c0 .186 0 .186 0 0 .186.372.558.558.744.558h.186c.187 0 .187 0 .373-.186l.186-.186 5.395-3.72c.558-.559.744-1.117.372-1.49-.372-.371-.93-.557-1.302-.185l-4.093 2.976V1.43c0-.558-.372-.93-.93-.93-.559 0-.93.372-.93.93v13.023l-4.28-2.976c-.372-.372-.93-.186-1.302.186s-.186.93.186 1.302z"/></g></g></g></svg>