<?xml version="1.0" encoding="utf-8"?><svg xmlns="http://www.w3.org/2000/svg" width="44" height="40" viewBox="0 0 44 40"><path d="M43.258 22.083c.18.18.362.362.362.724v14.48c0 1.628-1.086 2.714-2.715 2.714h-3.62c-1.629 0-2.715-1.086-2.715-2.715v-.905H9.23v.905c0 1.63-1.085 2.715-2.714 2.715h-3.62c-1.629 0-2.715-1.086-2.715-2.715V25.16C0 24.979 0 24.798 0 24.617c0-.181 0-.362.181-.543v-1.267c0-.362 0-.543.181-.724l3.258-3.258c0-.181.18-.362.362-.543.905-1.267 1.448-2.534 1.99-3.44l.725-1.266c.543-.724.905-1.63 1.448-2.353.362-.543.724-1.086 1.086-1.81.18-.181.362-.362.724-.362h1.629c.543-.181 1.267-.181 1.81-.181.543 0 .905.543.905 1.086s-.362.905-.905.905h-2.896c-.181.543-.543.905-.724 1.267-.543.905-1.086 1.629-1.448 2.353l-.724 1.448c-.543.724-.905 1.448-1.448 2.353h31.131c-.905-1.448-1.629-2.715-2.172-3.44-.724-.904-1.448-2.352-2.353-3.62-.543-.18-1.267-.18-1.81-.18-.724-.181-1.629-.181-2.715-.362-.362-.181-.724-.543-.724-1.086.181-.362.543-.724 1.086-.724.724.181 1.63.181 2.353.181.724 0 1.63.181 2.353.181.362 0 .543.181.724.362.905 1.448 1.81 2.896 2.534 3.982a91.049 91.049 0 013.077 4.887zm-1.448 1.086l-3.077-3.077H5.068L1.99 23.169v.543h7.06c.543 0 .905.362.905.905s-.362.905-.905.905H1.99v11.764c0 .543.362.905.905.905h3.62c.543 0 .905-.362.905-.905v-1.81c0-.543.362-.905.905-.905h27.15c.542 0 .904.362.904.905v1.81c0 .543.362.905.905.905h3.62c.543 0 .905-.362.905-.905V25.522h-7.42c-.544 0-.906-.362-.906-.905s.362-.905.905-.905h7.421z"/><path d="M32.399 25.52c.18.181.362.543.18.905-1.628 5.068-2.533 6.154-3.619 6.154H14.48c-1.086 0-1.81-.905-3.62-5.973-.18-.362 0-.724 0-.905l1.81-1.81c.181 0 .543-.181.724-.181h16.29c.362 0 .543 0 .724.181zm-3.62 5.43c.181-.181.724-1.086 1.81-4.344l-1.086-1.086H13.937l-1.086 1.086c1.086 3.258 1.63 4.163 1.81 4.344zM20.449 17.014C19.906 16.109 15.2 9.05 15.2 5.973 15.2 2.715 17.915 0 21.173 0c3.439 0 5.973 2.534 5.973 5.973 0 2.896-4.706 10.136-5.25 11.04-.18.182-.361.363-.723.363.18 0 .18 0 0 0-.181 0-.543-.181-.724-.362zm-3.44-11.222c0 1.629 2.354 5.973 4.164 8.869 1.81-3.077 4.163-7.24 4.163-8.87 0-2.352-1.81-4.162-4.163-4.162-2.172 0-4.163 1.99-4.163 4.163z"/><path d="M22.988 5.969c0-.905-.724-1.629-1.629-1.629s-1.629.724-1.629 1.629.724 1.629 1.629 1.629 1.629-.905 1.629-1.629z"/></svg>