<?xml version="1.0" encoding="utf-8"?><svg xmlns="http://www.w3.org/2000/svg" width="20" height="20" viewBox="0 0 20 20"><path fill="#ef0f1e" d="M19.386 17.521l-1.423 1.344c-.253.24-1 .391-1.024.391-4.5.038-8.835-1.636-12.02-4.647C1.725 11.587-.051 7.476 0 3.21c0 0 .16-.684.414-.923L1.84.942C2.355.45 3.36.225 4.06.445l.3.095c.7.224 1.43.949 1.623 1.625l.715 2.482c.193.676-.068 1.637-.59 2.126l-.944.896c.936 3.265 3.644 5.828 7.099 6.709l.952-.896c.518-.497 1.538-.74 2.25-.558l2.627.68c.711.185 1.486.873 1.715 1.537l.1.285c.238.657 0 1.606-.521 2.095z"/></svg>