<?xml version="1.0" encoding="utf-8"?><!DOCTYPE svg PUBLIC "-//W3C//DTD SVG 1.1//EN" "http://www.w3.org/Graphics/SVG/1.1/DTD/svg11.dtd"><svg viewBox="0 0 45 41" xmlns="http://www.w3.org/2000/svg" xmlns:xlink="http://www.w3.org/1999/xlink"><style>:root>svg{display:none}:root>svg:target{display:block}</style><svg viewBox="0 0 45 41" id="icon--cat-car-1" xmlns="http://www.w3.org/2000/svg"><path fill="#ef0b1a" d="M44.465 22.081c0 .186.186.558.186.745v14.883c0 1.675-1.116 2.791-2.79 2.791H38.14c-1.675 0-2.791-1.116-2.791-2.79v-.93H9.302v.93c0 1.674-1.116 2.79-2.79 2.79H2.79C1.116 40.5 0 39.384 0 37.71V22.825c0-.186.186-.559.186-.559l3.721-3.72c.558-.93.93-1.675 1.488-2.605.558-.93.93-1.86 1.489-2.605l.372-.558C8 11.663 8.744 10.733 9.488 9.43c.186-.372.372-.558.745-.558h1.674c.558-.186 1.302-.186 1.86-.186.559 0 .745.558.745 1.116s-.373.93-.93.93h-2.978c-.559 1.117-1.303 2.047-1.86 2.977l-.373.744c-.372.559-.93 1.489-1.302 2.42-.186.371-.558.93-.744 1.301h32c-.559-.93-.93-1.86-1.489-2.418l-.744-1.303c-.744-.93-1.488-2.418-2.419-3.72-.558-.187-1.302-.187-1.86-.187-.744 0-1.675 0-2.419-.186-.372-.186-.744-.558-.744-1.116.186-.372.558-.744 1.116-.744.745.186 1.675.186 2.419.186s1.675.186 2.419.186c.186 0 .372.186.558.186.93 1.489 1.86 2.977 2.604 4.093l.745 1.302c.558 1.117 1.302 2.42 2.232 3.907zm-1.674 1.117l-3.163-3.163H5.023L1.86 23.198v.558h7.442c.558 0 .93.372.93.93s-.372.93-.93.93H1.86V37.71c0 .558.373.93.93.93h3.722c.558 0 .93-.372.93-.93v-1.86c0-.558.372-.93.93-.93H36.28c.558 0 .93.372.93.93v1.86c0 .558.372.93.93.93h3.721c.559 0 .93-.372.93-.93V25.616H35.35c-.558 0-.93-.372-.93-.93s.372-.93.93-.93h7.442z"/><path fill="#ef0b1a" d="M33.3 25.807c.186.186.372.558.186.93-1.675 5.21-2.605 6.325-3.721 6.325H14.88c-1.116 0-2.047-1.116-3.721-6.325 0-.186 0-.558.186-.93l1.86-1.86c.187 0 .559-.187.745-.187h16.744c.372 0 .558 0 .744.186zm-3.721 5.395c.186-.186.93-.93 1.86-4.465l-1.116-1.117h-16l-1.116 1.117c1.116 3.535 1.674 4.279 1.86 4.465zM20.654 16.686c0 .186 0 .186 0 0 .186.372.558.558.744.558h.186c.187 0 .187 0 .373-.186l.186-.186 5.395-3.72c.558-.559.744-1.117.372-1.49-.372-.371-.93-.557-1.302-.185l-4.093 2.976V1.43c0-.558-.372-.93-.93-.93-.559 0-.93.372-.93.93v13.023l-4.28-2.976c-.372-.372-.93-.186-1.302.186s-.186.93.186 1.302z"/></svg><svg viewBox="0 0 44 40" id="icon--cat-car-2" xmlns="http://www.w3.org/2000/svg"><path d="M43.258 22.083c.18.18.362.362.362.724v14.48c0 1.628-1.086 2.714-2.715 2.714h-3.62c-1.629 0-2.715-1.086-2.715-2.715v-.905H9.23v.905c0 1.63-1.085 2.715-2.714 2.715h-3.62c-1.629 0-2.715-1.086-2.715-2.715V25.16C0 24.979 0 24.798 0 24.617c0-.181 0-.362.181-.543v-1.267c0-.362 0-.543.181-.724l3.258-3.258c0-.181.18-.362.362-.543.905-1.267 1.448-2.534 1.99-3.44l.725-1.266c.543-.724.905-1.63 1.448-2.353.362-.543.724-1.086 1.086-1.81.18-.181.362-.362.724-.362h1.629c.543-.181 1.267-.181 1.81-.181.543 0 .905.543.905 1.086s-.362.905-.905.905h-2.896c-.181.543-.543.905-.724 1.267-.543.905-1.086 1.629-1.448 2.353l-.724 1.448c-.543.724-.905 1.448-1.448 2.353h31.131c-.905-1.448-1.629-2.715-2.172-3.44-.724-.904-1.448-2.352-2.353-3.62-.543-.18-1.267-.18-1.81-.18-.724-.181-1.629-.181-2.715-.362-.362-.181-.724-.543-.724-1.086.181-.362.543-.724 1.086-.724.724.181 1.63.181 2.353.181.724 0 1.63.181 2.353.181.362 0 .543.181.724.362.905 1.448 1.81 2.896 2.534 3.982a91.049 91.049 0 013.077 4.887zm-1.448 1.086l-3.077-3.077H5.068L1.99 23.169v.543h7.06c.543 0 .905.362.905.905s-.362.905-.905.905H1.99v11.764c0 .543.362.905.905.905h3.62c.543 0 .905-.362.905-.905v-1.81c0-.543.362-.905.905-.905h27.15c.542 0 .904.362.904.905v1.81c0 .543.362.905.905.905h3.62c.543 0 .905-.362.905-.905V25.522h-7.42c-.544 0-.906-.362-.906-.905s.362-.905.905-.905h7.421z"/><path d="M32.399 25.52c.18.181.362.543.18.905-1.628 5.068-2.533 6.154-3.619 6.154H14.48c-1.086 0-1.81-.905-3.62-5.973-.18-.362 0-.724 0-.905l1.81-1.81c.181 0 .543-.181.724-.181h16.29c.362 0 .543 0 .724.181zm-3.62 5.43c.181-.181.724-1.086 1.81-4.344l-1.086-1.086H13.937l-1.086 1.086c1.086 3.258 1.63 4.163 1.81 4.344zM20.449 17.014C19.906 16.109 15.2 9.05 15.2 5.973 15.2 2.715 17.915 0 21.173 0c3.439 0 5.973 2.534 5.973 5.973 0 2.896-4.706 10.136-5.25 11.04-.18.182-.361.363-.723.363.18 0 .18 0 0 0-.181 0-.543-.181-.724-.362zm-3.44-11.222c0 1.629 2.354 5.973 4.164 8.869 1.81-3.077 4.163-7.24 4.163-8.87 0-2.352-1.81-4.162-4.163-4.162-2.172 0-4.163 1.99-4.163 4.163z"/><path d="M22.988 5.969c0-.905-.724-1.629-1.629-1.629s-1.629.724-1.629 1.629.724 1.629 1.629 1.629 1.629-.905 1.629-1.629z"/></svg><svg viewBox="0 0 25 15" id="icon--email" xmlns="http://www.w3.org/2000/svg"><path fill="#ef0f1e" d="M12.322 7.914L2 .42h20.66zM8.745 7.287L.4 13.719V1.23zM10.088 8.274l2.233 1.633L14.65 8.2l8.159 6.397H1.9zM16 7.212l8.275-5.982v12.477z"/></svg><svg viewBox="0 0 20 20" id="icon--phone" xmlns="http://www.w3.org/2000/svg"><path fill="#ef0f1e" d="M19.386 17.521l-1.423 1.344c-.253.24-1 .391-1.024.391-4.5.038-8.835-1.636-12.02-4.647C1.725 11.587-.051 7.476 0 3.21c0 0 .16-.684.414-.923L1.84.942C2.355.45 3.36.225 4.06.445l.3.095c.7.224 1.43.949 1.623 1.625l.715 2.482c.193.676-.068 1.637-.59 2.126l-.944.896c.936 3.265 3.644 5.828 7.099 6.709l.952-.896c.518-.497 1.538-.74 2.25-.558l2.627.68c.711.185 1.486.873 1.715 1.537l.1.285c.238.657 0 1.606-.521 2.095z"/></svg><svg viewBox="0 0 24 20" id="icon--plane" xmlns="http://www.w3.org/2000/svg"><path d="M1.095 8.254L22.012.098c.977-.35 1.825.239 1.5 1.725l-3.56 16.971c-.267 1.197-.977 1.496-1.963.928l-5.424-4.049-2.624 2.543c-.286.29-.532.538-1.094.538l.384-5.574 10.07-9.173c.443-.39-.1-.609-.681-.22L6.194 11.695.839 10.009c-1.144-.398-1.174-1.196.256-1.755z"/></svg><svg viewBox="0 0 32 32" id="icon_phone" xmlns="http://www.w3.org/2000/svg"><path d="M13.216 8.064c-.382-4.394-4.966-6.55-5.16-6.638a.974.974 0 00-.582-.078c-5.292.878-6.088 3.958-6.12 4.086a.99.99 0 00.02.54c6.312 19.584 19.43 23.214 23.742 24.408.332.092.606.166.814.234a.99.99 0 00.722-.042c.132-.06 3.248-1.528 4.01-6.316a.997.997 0 00-.096-.612c-.068-.132-1.698-3.234-6.218-4.33a.977.977 0 00-.884.21c-1.426 1.218-3.396 2.516-4.246 2.65-5.698-2.786-8.88-8.132-9-9.146-.07-.57 1.236-2.572 2.738-4.2a.998.998 0 00.26-.766z"/></svg><svg viewBox="0 0 32 32" id="icon_pin_alt" xmlns="http://www.w3.org/2000/svg"><path d="M15.212 16.424a5.218 5.218 0 005.212-5.212C20.424 8.338 18.086 6 15.212 6S10 8.338 10 11.212a5.218 5.218 0 005.212 5.212zm0-8.424c1.77 0 3.212 1.44 3.212 3.212s-1.44 3.212-3.212 3.212S12 12.982 12 11.212 13.44 8 15.212 8zm-.728 23.458c.168.186.33.306.486.39l.008.004a.714.714 0 00.314.098c.1 0 .206-.042.314-.098l.008-.004c.156-.084.318-.204.486-.39 0 0 9.296-10.11 10.23-18.87.056-.452.094-.91.094-1.376C26.424 5.02 21.404 0 15.212 0S4 5.02 4 11.212c0 .474.038.936.096 1.394.958 8.756 10.388 18.852 10.388 18.852zM15.212 2c5.08 0 9.212 4.132 9.212 9.212 0 .338-.024.698-.082 1.164-.716 6.712-7.018 14.588-9.048 16.984-2.082-2.4-8.474-10.256-9.214-17A9.375 9.375 0 016 11.212C6 6.132 10.132 2 15.212 2z"/></svg></svg>